<svg xmlns="http://www.w3.org/2000/svg" width="813.333" height="794.667" preserveAspectRatio="xMidYMid meet" version="1.0" viewBox="0 0 610 596"><g fill="#000" stroke="none"><path d="M4525 4699 c-142 -15 -377 -112 -607 -252 l-107 -65 -63 14 c-259 61 -446 84 -698 84 -252 0 -438 -23 -698 -84 l-64 -15 -105 65 c-241 149 -530 258 -668 252 l-70 -3 -32 -98 c-76 -230 -80 -509 -9 -678 14 -33 14 -34 -38 -96 -104 -126 -194 -307 -231 -465 -39 -170 -36 -505 5 -710 46 -223 136 -437 245 -582 198 -263 580 -446 1048 -501 l57 -6 -41 -47 c-52 -60 -116 -191 -134 -278 -8 -38 -15 -72 -15 -75 0 -12 -96 -47 -170 -63 -194 -39 -310 -31 -436 30 -101 49 -171 116 -260 250 -97 145 -184 227 -297 283 -45 22 -102 45 -127 50 -104 24 -200 3 -200 -42 0 -34 63 -102 136 -148 107 -68 205 -193 281 -359 81 -177 107 -221 163 -274 102 -97 202 -143 365 -170 177 -28 332 -28 498 0 l37 7 0 -308 c0 -295 -1 -309 -21 -341 -24 -40 -49 -55 -104 -65 -22 -3 376 -6 885 -6 509 0 907 3 885 6 -51 9 -78 26 -101 65 -18 29 -19 67 -25 561 -6 585 -8 599 -72 737 -18 40 -54 98 -79 129 l-47 57 82 12 c245 35 418 83 584 161 208 100 375 235 478 389 109 164 200 429 225 660 15 139 16 385 1 490 -28 196 -125 408 -257 565 -42 50 -42 50 -28 84 47 111 64 351 35 501 -17 91 -68 255 -83 267 -19 15 -57 19 -123 12z" transform="translate(0.000000,596.000000) scale(0.100000,-0.100000)"/></g></svg>