<?xml version="1.0" standalone="no"?>
<!DOCTYPE svg PUBLIC "-//W3C//DTD SVG 20010904//EN"
 "http://www.w3.org/TR/2001/REC-SVG-20010904/DTD/svg10.dtd">
<svg version="1.0" xmlns="http://www.w3.org/2000/svg"
 width="822.000000pt" height="815.000000pt" viewBox="0 0 822.000000 815.000000"
 preserveAspectRatio="xMidYMid meet">

<g transform="translate(0.000000,815.000000) scale(0.100000,-0.100000)"
fill="#000000" stroke="none">
<path d="M5 4085 c0 -2239 1 -3153 2 -2032 2 1121 2 2953 0 4070 -1 1118 -2
201 -2 -2038z"/>
<path d="M8215 4085 c0 -2239 1 -3153 2 -2032 2 1121 2 2953 0 4070 -1 1118
-2 201 -2 -2038z"/>
<path d="M4540 7718 c-54 -37 -68 -66 -100 -213 -17 -77 -37 -167 -45 -200 -8
-33 -42 -184 -75 -335 -34 -151 -79 -356 -101 -455 -22 -99 -53 -238 -69 -310
-79 -358 -200 -899 -203 -901 -1 -1 -76 -7 -167 -14 -290 -19 -586 -66 -865
-136 -138 -35 -264 -74 -410 -129 -257 -96 -536 -237 -757 -381 -53 -35 -100
-64 -103 -64 -4 0 -34 25 -68 56 -135 125 -288 193 -483 215 -267 30 -515 -55
-705 -241 -188 -184 -272 -383 -272 -640 0 -86 6 -136 22 -200 60 -229 208
-431 403 -551 34 -21 66 -40 69 -41 3 -2 -2 -50 -12 -108 -49 -277 -32 -575
47 -848 190 -656 770 -1258 1554 -1612 122 -55 180 -79 305 -127 316 -120 750
-216 1145 -255 180 -17 783 -17 950 0 1061 112 1965 527 2514 1152 285 325
453 650 527 1025 21 105 24 147 24 345 -1 193 -4 240 -23 330 -15 71 -18 106
-11 109 6 2 44 25 85 53 247 165 387 430 387 733 0 186 -39 324 -136 472 -180
279 -481 432 -806 408 -211 -15 -359 -78 -535 -228 l-45 -39 -118 74 c-198
125 -347 204 -558 295 -420 182 -887 290 -1420 329 -121 9 -221 17 -222 18 -1
1 23 112 53 246 74 332 82 368 109 495 13 61 28 130 34 155 39 174 59 264 126
570 42 190 89 408 106 485 17 77 34 144 39 148 4 4 101 -13 216 -39 115 -25
247 -54 294 -64 172 -38 598 -133 720 -161 25 -5 92 -21 149 -34 57 -13 107
-29 111 -35 4 -6 10 -45 13 -85 20 -227 194 -441 435 -533 61 -24 80 -26 217
-26 137 0 156 2 217 26 166 63 305 185 376 329 168 339 32 733 -312 900 -118
57 -290 74 -429 43 -172 -39 -349 -170 -422 -312 -19 -40 8 -42 -295 24 -113
25 -277 61 -365 80 -197 43 -275 60 -385 85 -47 10 -179 39 -295 64 -115 25
-238 52 -272 60 -86 21 -124 19 -163 -7z m-1725 -3984 c120 -31 202 -80 303
-180 141 -141 192 -265 192 -464 0 -199 -57 -336 -195 -475 -87 -88 -170 -138
-289 -174 -85 -26 -260 -29 -351 -6 -185 47 -351 185 -435 360 -50 106 -64
169 -63 295 1 129 12 181 65 290 34 70 57 100 132 175 119 118 209 165 374
195 61 11 191 3 267 -16z m2931 1 c116 -30 201 -81 300 -179 76 -76 98 -106
132 -176 52 -110 66 -172 66 -295 0 -123 -14 -185 -66 -294 -33 -70 -56 -101
-132 -176 -99 -100 -182 -150 -301 -180 -79 -20 -250 -20 -334 1 -212 53 -400
225 -472 434 -31 90 -39 287 -15 380 31 121 81 206 181 306 71 72 106 98 165
127 159 75 315 93 476 52z m-2933 -1967 c12 -6 47 -32 77 -58 182 -156 397
-239 775 -301 248 -41 639 -40 890 0 361 59 595 147 757 285 94 80 105 86 171
86 113 0 184 -98 151 -210 -12 -41 -26 -59 -82 -106 -143 -122 -293 -201 -527
-277 -348 -114 -467 -132 -905 -132 -366 0 -432 5 -640 52 -154 34 -403 115
-519 169 -191 89 -358 222 -378 302 -19 73 9 145 70 182 36 23 125 27 160 8z"/>
<path d="M2063 3 c1126 -2 2968 -2 4095 0 1126 1 204 2 -2048 2 -2252 0 -3174
-1 -2047 -2z"/>
</g>
</svg>
